<?xml version="1.0" encoding="UTF-8" standalone="no"?>
<!DOCTYPE svg PUBLIC "-//W3C//DTD SVG 1.1//EN"
 "http://www.w3.org/Graphics/SVG/1.1/DTD/svg11.dtd">
<!-- Generated by graphviz version 2.40.1 (20161225.0304)
 -->
<!-- Title: pipeline_dag Pages: 1 -->
<svg width="775pt" height="697pt"
 viewBox="0.00 0.00 775.09 697.40" xmlns="http://www.w3.org/2000/svg" xmlns:xlink="http://www.w3.org/1999/xlink">
<g id="graph0" class="graph" transform="scale(1 1) rotate(0) translate(4 693.4)">
<title>pipeline_dag</title>
<polygon fill="#ffffff" stroke="transparent" points="-4,4 -4,-693.4 771.0854,-693.4 771.0854,4 -4,4"/>
<!-- p0 -->
<g id="node1" class="node">
<title>p0</title>
<ellipse fill="#000000" stroke="#000000" cx="342.0854" cy="-598.2" rx="3.6" ry="3.6"/>
<text text-anchor="middle" x="276.4854" y="-605.6" font-family="Times,serif" font-size="14.00" fill="#000000">Channel.fromFilePairs</text>
</g>
<!-- p5 -->
<g id="node2" class="node">
<title>p5</title>
<ellipse fill="none" stroke="#000000" cx="400.0854" cy="-525.6" rx="3.5" ry="3.5"/>
<text text-anchor="middle" x="372.5854" y="-532.9" font-family="Times,serif" font-size="14.00" fill="#000000">combine</text>
</g>
<!-- p0&#45;&gt;p5 -->
<g id="edge1" class="edge">
<title>p0&#45;&gt;p5</title>
<path fill="none" stroke="#000000" d="M342.0143,-594.5268C342.0309,-585.4429 343.2716,-561.6183 355.0854,-547.2 363.0595,-537.4678 376.4628,-531.8271 386.5723,-528.7673"/>
<polygon fill="#000000" stroke="#000000" points="387.5734,-532.1242 396.4042,-526.2704 385.8503,-525.3396 387.5734,-532.1242"/>
<text text-anchor="middle" x="395.5854" y="-551" font-family="Times,serif" font-size="14.00" fill="#000000">ch_inputReads</text>
</g>
<!-- p6 -->
<g id="node9" class="node">
<title>p6</title>
<ellipse fill="none" stroke="#000000" cx="400.0854" cy="-453" rx="126.978" ry="18"/>
<text text-anchor="middle" x="400.0854" y="-449.3" font-family="Times,serif" font-size="14.00" fill="#000000">DEPLETEHUMAN_MINIMAP</text>
</g>
<!-- p5&#45;&gt;p6 -->
<g id="edge6" class="edge">
<title>p5&#45;&gt;p6</title>
<path fill="none" stroke="#000000" d="M400.0854,-522.0984C400.0854,-514.734 400.0854,-497.0304 400.0854,-481.3875"/>
<polygon fill="#000000" stroke="#000000" points="403.5854,-481.0393 400.0854,-471.0393 396.5854,-481.0394 403.5854,-481.0393"/>
</g>
<!-- p1 -->
<g id="node3" class="node">
<title>p1</title>
<ellipse fill="#000000" stroke="#000000" cx="135.0854" cy="-525.6" rx="3.6" ry="3.6"/>
<text text-anchor="middle" x="93.4854" y="-533" font-family="Times,serif" font-size="14.00" fill="#000000">Channel.from</text>
</g>
<!-- p9 -->
<g id="node4" class="node">
<title>p9</title>
<ellipse fill="none" stroke="#000000" cx="135.0854" cy="-453" rx="120.4791" ry="18"/>
<text text-anchor="middle" x="135.0854" y="-449.3" font-family="Times,serif" font-size="14.00" fill="#000000">PREPAREDB_CENTRIFUGE</text>
</g>
<!-- p1&#45;&gt;p9 -->
<g id="edge2" class="edge">
<title>p1&#45;&gt;p9</title>
<path fill="none" stroke="#000000" d="M135.0854,-521.6967C135.0854,-514.0869 135.0854,-496.6632 135.0854,-481.2684"/>
<polygon fill="#000000" stroke="#000000" points="138.5855,-481.0802 135.0854,-471.0802 131.5855,-481.0802 138.5855,-481.0802"/>
<text text-anchor="middle" x="189.5854" y="-492.8" font-family="Times,serif" font-size="14.00" fill="#000000">ch_centrifugeDbUri</text>
</g>
<!-- p10 -->
<g id="node15" class="node">
<title>p10</title>
<ellipse fill="none" stroke="#000000" cx="147.0854" cy="-366" rx="3.5" ry="3.5"/>
<text text-anchor="middle" x="127.5854" y="-373.3" font-family="Times,serif" font-size="14.00" fill="#000000">toList</text>
</g>
<!-- p9&#45;&gt;p10 -->
<g id="edge12" class="edge">
<title>p9&#45;&gt;p10</title>
<path fill="none" stroke="#000000" d="M137.5718,-434.9735C139.8458,-418.4868 143.1595,-394.4625 145.2157,-379.5548"/>
<polygon fill="#000000" stroke="#000000" points="148.6975,-379.9265 146.5968,-369.542 141.7632,-378.97 148.6975,-379.9265"/>
<text text-anchor="middle" x="238.5854" y="-405.8" font-family="Times,serif" font-size="14.00" fill="#000000">ch_prepareDb_sampleComposition</text>
</g>
<!-- p2 -->
<g id="node5" class="node">
<title>p2</title>
<ellipse fill="#000000" stroke="#000000" cx="470.0854" cy="-670.8" rx="3.6" ry="3.6"/>
<text text-anchor="middle" x="428.4854" y="-678.2" font-family="Times,serif" font-size="14.00" fill="#000000">Channel.from</text>
</g>
<!-- p4 -->
<g id="node6" class="node">
<title>p4</title>
<ellipse fill="none" stroke="#000000" cx="470.0854" cy="-598.2" rx="105.8812" ry="18"/>
<text text-anchor="middle" x="470.0854" y="-594.5" font-family="Times,serif" font-size="14.00" fill="#000000">PREPAREDB_MINIMAP</text>
</g>
<!-- p2&#45;&gt;p4 -->
<g id="edge3" class="edge">
<title>p2&#45;&gt;p4</title>
<path fill="none" stroke="#000000" d="M470.0854,-666.8967C470.0854,-659.2869 470.0854,-641.8632 470.0854,-626.4684"/>
<polygon fill="#000000" stroke="#000000" points="473.5855,-626.2802 470.0854,-616.2802 466.5855,-626.2802 473.5855,-626.2802"/>
<text text-anchor="middle" x="531.0854" y="-638" font-family="Times,serif" font-size="14.00" fill="#000000">ch_humanGenomeUri</text>
</g>
<!-- p4&#45;&gt;p5 -->
<g id="edge5" class="edge">
<title>p4&#45;&gt;p5</title>
<path fill="none" stroke="#000000" d="M460.7599,-580.2355C454.7085,-569.7489 446.0973,-556.7465 436.0854,-547.2 429.2196,-540.6534 420.0295,-535.1802 412.6533,-531.3812"/>
<polygon fill="#000000" stroke="#000000" points="413.9216,-528.1089 403.3872,-526.9788 410.9176,-534.4316 413.9216,-528.1089"/>
<text text-anchor="middle" x="535.5854" y="-551" font-family="Times,serif" font-size="14.00" fill="#000000">ch_prepareDb_humanDepletion</text>
</g>
<!-- p3 -->
<g id="node7" class="node">
<title>p3</title>
<ellipse fill="#000000" stroke="#000000" cx="667.0854" cy="-192" rx="3.6" ry="3.6"/>
<text text-anchor="middle" x="625.4854" y="-199.4" font-family="Times,serif" font-size="14.00" fill="#000000">Channel.from</text>
</g>
<!-- p17 -->
<g id="node8" class="node">
<title>p17</title>
<ellipse fill="none" stroke="#000000" cx="667.0854" cy="-105" rx="96.6831" ry="18"/>
<text text-anchor="middle" x="667.0854" y="-101.3" font-family="Times,serif" font-size="14.00" fill="#000000">PREPAREDB_KRONA</text>
</g>
<!-- p3&#45;&gt;p17 -->
<g id="edge4" class="edge">
<title>p3&#45;&gt;p17</title>
<path fill="none" stroke="#000000" d="M667.0854,-188.2617C667.0854,-178.845 667.0854,-153.453 667.0854,-133.1647"/>
<polygon fill="#000000" stroke="#000000" points="670.5855,-133.1321 667.0854,-123.1322 663.5855,-133.1322 670.5855,-133.1321"/>
<text text-anchor="middle" x="715.5854" y="-144.8" font-family="Times,serif" font-size="14.00" fill="#000000">ch_kronaDummy</text>
</g>
<!-- p19 -->
<g id="node20" class="node">
<title>p19</title>
<ellipse fill="none" stroke="#000000" cx="416.0854" cy="-18" rx="153.2729" ry="18"/>
<text text-anchor="middle" x="416.0854" y="-14.3" font-family="Times,serif" font-size="14.00" fill="#000000">SAMPLECOMPSUMMARY_KRONA</text>
</g>
<!-- p17&#45;&gt;p19 -->
<g id="edge19" class="edge">
<title>p17&#45;&gt;p19</title>
<path fill="none" stroke="#000000" d="M621.0481,-89.0429C580.0422,-74.8297 519.8091,-53.952 475.2419,-38.5045"/>
<polygon fill="#000000" stroke="#000000" points="476.2931,-35.1646 465.6983,-35.1965 474.0006,-41.7786 476.2931,-35.1646"/>
<text text-anchor="middle" x="661.5854" y="-57.8" font-family="Times,serif" font-size="14.00" fill="#000000">ch_prepareDb_sampleCompSummary</text>
</g>
<!-- p7 -->
<g id="node10" class="node">
<title>p7</title>
<ellipse fill="none" stroke="#000000" cx="399.0854" cy="-366" rx="124.2781" ry="18"/>
<text text-anchor="middle" x="399.0854" y="-362.3" font-family="Times,serif" font-size="14.00" fill="#000000">TRIMREADS_TRIMGALORE</text>
</g>
<!-- p6&#45;&gt;p7 -->
<g id="edge7" class="edge">
<title>p6&#45;&gt;p7</title>
<path fill="none" stroke="#000000" d="M399.8782,-434.9735C399.7427,-423.1918 399.5631,-407.5607 399.409,-394.1581"/>
<polygon fill="#000000" stroke="#000000" points="402.9071,-393.9624 399.2923,-384.0034 395.9076,-394.043 402.9071,-393.9624"/>
<text text-anchor="middle" x="481.5854" y="-405.8" font-family="Times,serif" font-size="14.00" fill="#000000">ch_depleteHuman_trimReads</text>
</g>
<!-- p8 -->
<g id="node11" class="node">
<title>p8</title>
<ellipse fill="none" stroke="#000000" cx="554.0854" cy="-279" rx="107.4815" ry="18"/>
<text text-anchor="middle" x="554.0854" y="-275.3" font-family="Times,serif" font-size="14.00" fill="#000000">INSERTSIZE_BBMERGE</text>
</g>
<!-- p7&#45;&gt;p8 -->
<g id="edge8" class="edge">
<title>p7&#45;&gt;p8</title>
<path fill="none" stroke="#000000" d="M489.2071,-353.5963C516.3707,-347.9741 541.3273,-340.2407 550.0854,-330 555.4429,-323.7355 557.4414,-315.3098 557.8124,-307.1135"/>
<polygon fill="#000000" stroke="#000000" points="561.309,-306.9366 557.5422,-297.034 554.3115,-307.1243 561.309,-306.9366"/>
<text text-anchor="middle" x="624.0854" y="-318.8" font-family="Times,serif" font-size="14.00" fill="#000000">ch_trimReads_insertSize</text>
</g>
<!-- p11 -->
<g id="node12" class="node">
<title>p11</title>
<ellipse fill="none" stroke="#000000" cx="165.0854" cy="-279" rx="3.5" ry="3.5"/>
<text text-anchor="middle" x="137.5854" y="-286.3" font-family="Times,serif" font-size="14.00" fill="#000000">combine</text>
</g>
<!-- p7&#45;&gt;p11 -->
<g id="edge9" class="edge">
<title>p7&#45;&gt;p11</title>
<path fill="none" stroke="#000000" d="M301.584,-354.8233C261.25,-348.8314 219.9817,-340.5003 203.0854,-330 188.3028,-320.8134 177.3178,-303.6047 171.0582,-291.7355"/>
<polygon fill="#000000" stroke="#000000" points="174.0539,-289.8922 166.5348,-282.428 167.758,-292.952 174.0539,-289.8922"/>
<text text-anchor="middle" x="299.5854" y="-318.8" font-family="Times,serif" font-size="14.00" fill="#000000">ch_trimReads_sampleComposition</text>
</g>
<!-- p14 -->
<g id="node13" class="node">
<title>p14</title>
<ellipse fill="none" stroke="#000000" cx="403.0854" cy="-279" rx="3.5" ry="3.5"/>
<text text-anchor="middle" x="382.0854" y="-286.3" font-family="Times,serif" font-size="14.00" fill="#000000">flatten</text>
</g>
<!-- p7&#45;&gt;p14 -->
<g id="edge10" class="edge">
<title>p7&#45;&gt;p14</title>
<path fill="none" stroke="#000000" d="M399.1645,-347.5772C399.2774,-337.8784 399.5306,-325.7899 400.0854,-315 400.4638,-307.6405 401.1268,-299.4528 401.7335,-292.7476"/>
<polygon fill="#000000" stroke="#000000" points="405.2188,-293.0671 402.6909,-282.7783 398.2509,-292.3978 405.2188,-293.0671"/>
<text text-anchor="middle" x="475.0854" y="-318.8" font-family="Times,serif" font-size="14.00" fill="#000000">ch_trimReads_qcSummary</text>
</g>
<!-- p13 -->
<g id="node14" class="node">
<title>p13</title>
<ellipse fill="none" stroke="#000000" cx="495.0854" cy="-192" rx="3.5" ry="3.5"/>
<text text-anchor="middle" x="473.0854" y="-199.3" font-family="Times,serif" font-size="14.00" fill="#000000">collect</text>
</g>
<!-- p8&#45;&gt;p13 -->
<g id="edge11" class="edge">
<title>p8&#45;&gt;p13</title>
<path fill="none" stroke="#000000" d="M541.8605,-260.9735C530.1272,-243.6718 512.7642,-218.0689 502.825,-203.4128"/>
<polygon fill="#000000" stroke="#000000" points="505.5959,-201.2627 497.0864,-194.9508 499.8024,-205.1916 505.5959,-201.2627"/>
<text text-anchor="middle" x="601.5854" y="-231.8" font-family="Times,serif" font-size="14.00" fill="#000000">ch_insertSize_qcSummary</text>
</g>
<!-- p12 -->
<g id="node16" class="node">
<title>p12</title>
<ellipse fill="none" stroke="#000000" cx="165.0854" cy="-192" rx="165.1707" ry="18"/>
<text text-anchor="middle" x="165.0854" y="-188.3" font-family="Times,serif" font-size="14.00" fill="#000000">SAMPLECOMPOSITION_CENTRIFUGE</text>
</g>
<!-- p11&#45;&gt;p12 -->
<g id="edge14" class="edge">
<title>p11&#45;&gt;p12</title>
<path fill="none" stroke="#000000" d="M165.0854,-275.2617C165.0854,-265.845 165.0854,-240.453 165.0854,-220.1647"/>
<polygon fill="#000000" stroke="#000000" points="168.5855,-220.1321 165.0854,-210.1322 161.5855,-220.1322 168.5855,-220.1321"/>
</g>
<!-- p15 -->
<g id="node19" class="node">
<title>p15</title>
<ellipse fill="none" stroke="#000000" cx="428.0854" cy="-192" rx="3.5" ry="3.5"/>
<text text-anchor="middle" x="406.0854" y="-199.3" font-family="Times,serif" font-size="14.00" fill="#000000">collect</text>
</g>
<!-- p14&#45;&gt;p15 -->
<g id="edge17" class="edge">
<title>p14&#45;&gt;p15</title>
<path fill="none" stroke="#000000" d="M404.1596,-275.2617C407.5971,-263.2989 418.4432,-225.5546 424.2795,-205.2445"/>
<polygon fill="#000000" stroke="#000000" points="427.645,-206.2052 427.043,-195.6275 420.9172,-204.2719 427.645,-206.2052"/>
</g>
<!-- p16 -->
<g id="node18" class="node">
<title>p16</title>
<ellipse fill="none" stroke="#000000" cx="438.0854" cy="-105" rx="114.2798" ry="18"/>
<text text-anchor="middle" x="438.0854" y="-101.3" font-family="Times,serif" font-size="14.00" fill="#000000">QCSUMMARY_MULTIQC</text>
</g>
<!-- p13&#45;&gt;p16 -->
<g id="edge16" class="edge">
<title>p13&#45;&gt;p16</title>
<path fill="none" stroke="#000000" d="M492.9205,-188.6957C486.8351,-179.4075 469.1311,-152.3856 455.4688,-131.5326"/>
<polygon fill="#000000" stroke="#000000" points="458.3145,-129.4895 449.9066,-123.043 452.4593,-133.3257 458.3145,-129.4895"/>
</g>
<!-- p10&#45;&gt;p11 -->
<g id="edge13" class="edge">
<title>p10&#45;&gt;p11</title>
<path fill="none" stroke="#000000" d="M147.8588,-362.2617C150.3223,-350.3548 158.0702,-312.9068 162.286,-292.5303"/>
<polygon fill="#000000" stroke="#000000" points="165.7361,-293.1293 164.3348,-282.6275 158.8813,-291.711 165.7361,-293.1293"/>
</g>
<!-- p18 -->
<g id="node17" class="node">
<title>p18</title>
<ellipse fill="none" stroke="#000000" cx="234.0854" cy="-105" rx="3.5" ry="3.5"/>
<text text-anchor="middle" x="212.0854" y="-112.3" font-family="Times,serif" font-size="14.00" fill="#000000">collect</text>
</g>
<!-- p12&#45;&gt;p18 -->
<g id="edge15" class="edge">
<title>p12&#45;&gt;p18</title>
<path fill="none" stroke="#000000" d="M163.3637,-173.6384C163.2898,-163.2678 164.7898,-150.5178 171.0854,-141 182.7109,-123.4241 206.0434,-113.4463 220.8192,-108.6415"/>
<polygon fill="#000000" stroke="#000000" points="221.8172,-111.9964 230.4476,-105.8508 219.8685,-105.2731 221.8172,-111.9964"/>
<text text-anchor="middle" x="300.0854" y="-144.8" font-family="Times,serif" font-size="14.00" fill="#000000">ch_sampleComposition_compositionSummary</text>
</g>
<!-- p18&#45;&gt;p19 -->
<g id="edge20" class="edge">
<title>p18&#45;&gt;p19</title>
<path fill="none" stroke="#000000" d="M237.2443,-103.49C252.8211,-96.0439 322.6127,-62.682 370.2619,-39.9046"/>
<polygon fill="#000000" stroke="#000000" points="371.9612,-42.9717 379.4739,-35.5011 368.9422,-36.6562 371.9612,-42.9717"/>
</g>
<!-- p15&#45;&gt;p16 -->
<g id="edge18" class="edge">
<title>p15&#45;&gt;p16</title>
<path fill="none" stroke="#000000" d="M428.515,-188.2617C429.5974,-178.845 432.516,-153.453 434.848,-133.1647"/>
<polygon fill="#000000" stroke="#000000" points="438.3363,-133.4664 436.0012,-123.1322 431.3821,-132.667 438.3363,-133.4664"/>
</g>
</g>
</svg>
